<svg width="20" height="20" viewBox="0 0 20 20" fill="none" xmlns="http://www.w3.org/2000/svg">
<path d="M11.25 3.125C11.25 3.00207 11.2137 2.88188 11.1458 2.77946C11.0778 2.67703 10.9811 2.59693 10.8678 2.54917C10.7546 2.5014 10.6297 2.4881 10.5089 2.51093C10.3882 2.53376 10.2768 2.5917 10.1888 2.6775L6.53 6.24H4.375C3.87772 6.24 3.40081 6.43754 3.04917 6.78917C2.69754 7.14081 2.5 7.61772 2.5 8.115V11.8525C2.5 12.3498 2.69754 12.8267 3.04917 13.1783C3.40081 13.53 3.87772 13.7275 4.375 13.7275H6.52875L10.1875 17.3213C10.2754 17.4074 10.3868 17.4657 10.5076 17.4888C10.6285 17.5119 10.7535 17.4988 10.867 17.4511C10.9805 17.4035 11.0774 17.3234 11.1455 17.2209C11.2136 17.1184 11.25 16.9981 11.25 16.875V3.125ZM12.6388 6.48625C12.6899 6.42194 12.7531 6.36834 12.825 6.3285C12.8968 6.28867 12.9758 6.26339 13.0574 6.2541C13.139 6.24481 13.2217 6.2517 13.3006 6.27438C13.3796 6.29705 13.4533 6.33507 13.5175 6.38625L13.52 6.3875L13.5225 6.39L13.5287 6.395L13.5475 6.41125L13.605 6.46125C13.6508 6.50292 13.71 6.56208 13.7825 6.63875C13.9238 6.7925 14.1075 7.01625 14.2887 7.31375C14.6525 7.91375 15.005 8.805 15.005 9.99875C15.005 11.1913 14.6525 12.0838 14.2887 12.6838C14.1429 12.9254 13.9733 13.152 13.7825 13.36C13.7022 13.4456 13.618 13.5273 13.53 13.605L13.52 13.6137H13.5187C13.5187 13.6137 12.96 13.9175 12.64 13.5162C12.5371 13.3875 12.4892 13.2233 12.5068 13.0595C12.5243 12.8956 12.6059 12.7453 12.7338 12.6413L12.7363 12.6388L12.7587 12.6188C12.7821 12.5979 12.8175 12.5625 12.865 12.5125C12.9989 12.3655 13.1178 12.2055 13.22 12.035C13.4825 11.6038 13.755 10.9325 13.755 9.9975C13.755 9.0625 13.4825 8.39375 13.22 7.96375C13.0913 7.75173 12.9368 7.55649 12.76 7.3825L12.7375 7.3625C12.6085 7.25917 12.5258 7.10897 12.5073 6.94476C12.4887 6.78055 12.536 6.61569 12.6388 6.48625ZM14.7662 3.88625C14.7023 3.8333 14.6284 3.79363 14.5489 3.76956C14.4694 3.74549 14.3859 3.73751 14.3033 3.74608C14.2207 3.75465 14.1406 3.7796 14.0677 3.81948C13.9949 3.85935 13.9307 3.91334 13.8789 3.9783C13.8272 4.04326 13.7889 4.11789 13.7663 4.19782C13.7437 4.27774 13.7373 4.36137 13.7474 4.44381C13.7575 4.52625 13.784 4.60584 13.8252 4.67795C13.8664 4.75005 13.9216 4.81322 13.9875 4.86375L14.0013 4.87625L14.0663 4.9325C14.1263 4.985 14.21 5.06625 14.3175 5.17625C14.53 5.3975 14.8175 5.73 15.105 6.16875C15.68 7.045 16.255 8.335 16.255 10.005C16.2599 11.3678 15.8596 12.7014 15.105 13.8363C14.8175 14.2738 14.53 14.6038 14.3175 14.8238C14.2169 14.9283 14.1118 15.0284 14.0025 15.1238L13.9887 15.1363H13.9875C13.8614 15.2406 13.7812 15.3904 13.7643 15.5533C13.7474 15.7161 13.7951 15.8791 13.8971 16.0072C13.9992 16.1353 14.1474 16.2182 14.3099 16.2381C14.4724 16.258 14.6363 16.2134 14.7662 16.1137L14.8075 16.08L14.9012 15.9987C14.98 15.9275 15.0887 15.8263 15.2175 15.6925C15.5642 15.3325 15.8764 14.9408 16.15 14.5225C17.038 13.1836 17.509 11.6116 17.5038 10.005C17.5071 8.39718 17.0362 6.82407 16.15 5.4825C15.8763 5.06384 15.5646 4.67134 15.2188 4.31C15.088 4.1743 14.9512 4.04459 14.8088 3.92125L14.78 3.8975L14.7713 3.89L14.7687 3.8875L14.7662 3.88625Z" fill="white"/>
</svg>
