<svg width="24" height="24" viewBox="0 0 24 24" fill="none" xmlns="http://www.w3.org/2000/svg">
<path d="M13.5 3.74993C13.5 3.60241 13.4565 3.45818 13.3749 3.33527C13.2933 3.21237 13.1773 3.11624 13.0414 3.05893C12.9055 3.00161 12.7557 2.98565 12.6107 3.01304C12.4658 3.04044 12.3321 3.10996 12.2265 3.21293L7.836 7.48793H5.25C4.65326 7.48793 4.08097 7.72498 3.65901 8.14694C3.23705 8.56889 3 9.14119 3 9.73793V14.2229C3 14.8197 3.23705 15.392 3.65901 15.8139C4.08097 16.2359 4.65326 16.4729 5.25 16.4729H7.8345L12.225 20.7854C12.3305 20.8888 12.4641 20.9588 12.6092 20.9865C12.7542 21.0142 12.9043 20.9985 13.0404 20.9413C13.1766 20.8841 13.2928 20.788 13.3746 20.665C13.4564 20.542 13.5 20.3976 13.5 20.2499V3.74993ZM15.1665 7.78343C15.2278 7.70626 15.3038 7.64193 15.39 7.59413C15.4762 7.54633 15.5709 7.51599 15.6689 7.50485C15.7668 7.4937 15.866 7.50197 15.9607 7.52918C16.0555 7.55639 16.1439 7.60201 16.221 7.66343L16.224 7.66493L16.227 7.66793L16.2345 7.67393L16.257 7.69343L16.326 7.75343C16.381 7.80343 16.452 7.87443 16.539 7.96643C16.7085 8.15093 16.929 8.41943 17.1465 8.77643C17.583 9.49643 18.006 10.5659 18.006 11.9984C18.006 13.4294 17.583 14.5004 17.1465 15.2204C16.9715 15.5104 16.7679 15.7823 16.539 16.0319C16.4427 16.1346 16.3415 16.2327 16.236 16.3259L16.224 16.3364H16.2225C16.2225 16.3364 15.552 16.7009 15.168 16.2194C15.0445 16.0649 14.9871 15.8679 15.0081 15.6713C15.0292 15.4746 15.1271 15.2943 15.2805 15.1694L15.2835 15.1664L15.3105 15.1424C15.3385 15.1174 15.381 15.0749 15.438 15.0149C15.5986 14.8385 15.7413 14.6466 15.864 14.4419C16.179 13.9244 16.506 13.1189 16.506 11.9969C16.506 10.8749 16.179 10.0724 15.864 9.55643C15.7095 9.302 15.5241 9.06771 15.312 8.85893L15.285 8.83493C15.1303 8.71093 15.0309 8.53069 15.0087 8.33364C14.9865 8.13659 15.0432 7.93876 15.1665 7.78343ZM17.7195 4.66343C17.6427 4.59988 17.554 4.55228 17.4586 4.5234C17.3633 4.49452 17.2631 4.48494 17.1639 4.49523C17.0648 4.50551 16.9687 4.53545 16.8813 4.5833C16.7938 4.63114 16.7168 4.69594 16.6547 4.77389C16.5926 4.85184 16.5467 4.94139 16.5196 5.03731C16.4925 5.13322 16.4848 5.23357 16.4969 5.3325C16.509 5.43142 16.5408 5.52694 16.5902 5.61346C16.6397 5.69999 16.7059 5.77579 16.785 5.83643L16.8015 5.85143L16.8795 5.91893C16.9515 5.98193 17.052 6.07943 17.181 6.21143C17.436 6.47693 17.781 6.87593 18.126 7.40243C18.816 8.45393 19.506 10.0019 19.506 12.0059C19.5119 13.6413 19.0315 15.2416 18.126 16.6034C17.781 17.1284 17.436 17.5244 17.181 17.7884C17.0603 17.9139 16.9342 18.034 16.803 18.1484L16.7865 18.1634H16.785C16.6336 18.2887 16.5375 18.4684 16.5172 18.6638C16.4969 18.8593 16.5541 19.0549 16.6766 19.2086C16.799 19.3622 16.9769 19.4617 17.1719 19.4856C17.3669 19.5096 17.5636 19.456 17.7195 19.3364L17.769 19.2959L17.8815 19.1984C17.976 19.1129 18.1065 18.9914 18.261 18.8309C18.677 18.3989 19.0517 17.9289 19.38 17.4269C20.4455 15.8203 21.0109 13.9338 21.0045 12.0059C21.0085 10.0765 20.4434 8.18882 19.38 6.57893C19.0516 6.07653 18.6775 5.60553 18.2625 5.17193C18.1056 5.00909 17.9414 4.85343 17.7705 4.70543L17.736 4.67693L17.7255 4.66793L17.7225 4.66493L17.7195 4.66343Z" fill="white"/>
</svg>
