<svg width="20" height="20" viewBox="0 0 20 20" fill="none" xmlns="http://www.w3.org/2000/svg">
<path d="M13.2382 2.79993C13.2382 3.2773 13.0486 3.73512 12.711 4.07267C12.3735 4.41023 11.9156 4.59986 11.4383 4.59986C10.9609 4.59986 10.5031 4.41023 10.1655 4.07267C9.82797 3.73512 9.63834 3.2773 9.63834 2.79993C9.63834 2.32256 9.82797 1.86474 10.1655 1.52719C10.5031 1.18963 10.9609 1 11.4383 1C11.9156 1 12.3735 1.18963 12.711 1.52719C13.0486 1.86474 13.2382 2.32256 13.2382 2.79993ZM10.7376 11.9782L13.0744 14.2839C13.164 14.3724 13.2341 14.4786 13.28 14.5958L14.526 17.7704C14.6133 17.9926 14.6087 18.2404 14.5132 18.4592C14.4178 18.678 14.2393 18.85 14.0171 18.9372C13.7949 19.0245 13.5471 19.0198 13.3283 18.9244C13.1095 18.829 12.9376 18.6505 12.8503 18.4283L11.6741 15.4309L7.65661 11.4666C7.55953 11.3709 7.48548 11.2543 7.44003 11.1258C7.39458 10.9972 7.37894 10.8601 7.39427 10.7246L7.71601 7.88069C6.94024 8.65196 6.34176 9.73597 5.88323 11.1728C5.84895 11.2873 5.79219 11.3939 5.71626 11.4862C5.64034 11.5786 5.54678 11.6549 5.44104 11.7107C5.3353 11.7664 5.2195 11.8006 5.10041 11.8112C4.98132 11.8217 4.86132 11.8084 4.74742 11.7721C4.63353 11.7357 4.52802 11.677 4.43705 11.5994C4.34609 11.5219 4.27149 11.4269 4.21762 11.3202C4.16375 11.2135 4.13169 11.0971 4.12331 10.9778C4.11493 10.8585 4.13039 10.7388 4.1688 10.6256C5.01026 7.98868 6.40746 6.01506 8.75187 5.11014L8.76222 5.10609C9.35935 4.88425 9.98032 4.90225 10.5338 5.18799C11.0652 5.46293 11.4437 5.93766 11.6916 6.46954L11.9832 7.09952C12.2028 7.5756 12.3873 7.97698 12.565 8.32887C12.8139 8.82385 13.0141 9.15234 13.2121 9.38273C13.3957 9.59602 13.5779 9.72742 13.8106 9.81831C14.0608 9.91596 14.4113 9.98346 14.9526 9.99966C15.0716 10.002 15.1888 10.028 15.2977 10.0759C15.4065 10.1239 15.5047 10.193 15.5867 10.2792C15.6687 10.3654 15.7328 10.4669 15.7752 10.578C15.8177 10.6891 15.8377 10.8076 15.8342 10.9264C15.8306 11.0453 15.8035 11.1623 15.7544 11.2707C15.7054 11.379 15.6353 11.4766 15.5483 11.5577C15.4613 11.6388 15.3591 11.7019 15.2476 11.7432C15.1361 11.7846 15.0175 11.8034 14.8986 11.7987C14.2484 11.7793 13.6711 11.6961 13.1559 11.4949C12.6235 11.2871 12.2037 10.9707 11.8464 10.5545C11.6214 10.2926 11.4234 9.99336 11.2389 9.66802L10.7376 11.9782Z" fill="#7A35B0"/>
<path d="M7.39422 12.7988L8.88591 14.2298L8.19924 16.5458C8.14613 16.725 8.03856 16.8832 7.89145 16.9985L5.58124 18.8088C5.48817 18.8817 5.38165 18.9355 5.26777 18.9673C5.15389 18.999 5.03488 19.008 4.91752 18.9937C4.80017 18.9794 4.68678 18.9422 4.58382 18.8841C4.48086 18.826 4.39035 18.7482 4.31746 18.6551C4.24457 18.5621 4.19073 18.4555 4.159 18.3417C4.12727 18.2278 4.11829 18.1088 4.13256 17.9914C4.14683 17.8741 4.18407 17.7607 4.24216 17.6577C4.30026 17.5548 4.37806 17.4642 4.47113 17.3914L6.55545 15.7588L7.18318 13.6394L7.39422 12.7988Z" fill="#7A35B0"/>
</svg>
