<svg width="20" height="21" viewBox="0 0 20 21" fill="none" xmlns="http://www.w3.org/2000/svg">
<g clip-path="url(#clip0_233_2552)">
<path d="M15.6652 10.5C15.6652 9.30229 15.0904 8.23969 14.2028 7.57219C13.7982 7.26795 13.2517 7.49705 13.0572 7.96437C12.8626 8.43205 13.1134 8.96194 13.4298 9.35756C13.6806 9.67114 13.8305 10.0697 13.8305 10.5043C13.8305 10.9389 13.6789 11.3384 13.4256 11.6532C13.1091 12.0462 12.8614 12.5737 13.0553 13.0395C13.2506 13.5087 13.8001 13.7372 14.2051 13.4302C15.0914 12.7585 15.6652 11.6967 15.6652 10.5ZM15.6412 4.13735C15.2017 3.88556 14.6609 4.11158 14.4663 4.57923C14.2717 5.04662 14.4984 5.57723 14.9268 5.84689C16.4735 6.82028 17.5 8.54012 17.5 10.5C17.5 12.4635 16.4735 14.1807 14.9269 15.1533C14.4984 15.4228 14.2717 15.9534 14.4663 16.4208C14.6609 16.8884 15.2017 17.1144 15.6412 16.8627C17.8467 15.5992 19.3305 13.2244 19.3305 10.5C19.3305 7.77562 17.8467 5.40075 15.6412 4.13735ZM2 5.91523C1.44771 5.91523 1 6.36295 1 6.91523V14.0805C1 14.6328 1.44772 15.0805 2 15.0805H4.25083C4.51616 15.0805 4.77061 15.1859 4.95817 15.3736L9.37313 19.7915C10.003 20.4218 11.0805 19.9757 11.0805 19.0846V1.91421C11.0805 1.02331 10.0033 0.577142 9.37336 1.20711L4.95813 5.62234C4.77059 5.80988 4.51624 5.91523 4.25102 5.91523H2Z" fill="#7A35B0"/>
</g>
<defs>
<clipPath id="clip0_233_2552">
<rect width="20" height="20" fill="white" transform="translate(0 0.5)"/>
</clipPath>
</defs>
</svg>
