<svg width="29" height="36" viewBox="0 0 29 36" fill="none" xmlns="http://www.w3.org/2000/svg">
<path d="M0.439341 13.0607C-0.146446 12.4749 -0.146446 11.5251 0.439341 10.9393L9.98528 1.3934C10.5711 0.807614 11.5208 0.807614 12.1066 1.3934C12.6924 1.97918 12.6924 2.92893 12.1066 3.51472L3.62132 12L12.1066 20.4853C12.6924 21.0711 12.6924 22.0208 12.1066 22.6066C11.5208 23.1924 10.5711 23.1924 9.98528 22.6066L0.439341 13.0607ZM28.5 34C28.5 34.8284 27.8284 35.5 27 35.5C26.1716 35.5 25.5 34.8284 25.5 34L28.5 34ZM1.5 10.5L20 10.5L20 13.5L1.5 13.5L1.5 10.5ZM28.5 19L28.5 34L25.5 34L25.5 19L28.5 19ZM20 10.5C24.6944 10.5 28.5 14.3056 28.5 19L25.5 19C25.5 15.9624 23.0376 13.5 20 13.5L20 10.5Z" fill="black"/>
</svg>
