<svg width="5" height="5" viewBox="0 0 5 5" fill="none" xmlns="http://www.w3.org/2000/svg">
<g clip-path="url(#clip0_37_10)">
<mask id="mask0_37_10" style="mask-type:luminance" maskUnits="userSpaceOnUse" x="0" y="0" width="5" height="5">
<path d="M5 0H0V5H5V0Z" fill="white"/>
</mask>
<g mask="url(#mask0_37_10)">
<path d="M2.31365 0.204367C2.25192 0.204559 2.18365 0.232252 2.12135 0.294366L1.02154 1.5384H0.192308C0.0863462 1.5384 0 1.62475 0 1.73071V3.26918C0 3.37515 0.0863462 3.46147 0.192308 3.46147H1.02173L2.11539 4.69956C2.30769 4.89185 2.5 4.79341 2.5 4.5313V0.438404C2.5 0.28629 2.41673 0.203405 2.31365 0.203982V0.204367ZM3.70788 0.588984C3.66697 0.596116 3.6295 0.616298 3.601 0.646504C3.57253 0.676713 3.55459 0.715328 3.54988 0.756575C3.54515 0.797825 3.55391 0.839492 3.57482 0.875351C3.59576 0.91121 3.62774 0.939334 3.66597 0.955522C3.95209 1.0993 4.1925 1.31997 4.36021 1.59277C4.52791 1.86558 4.61626 2.17972 4.61538 2.49994C4.61538 3.17765 4.23076 3.75956 3.66576 4.04435C3.64006 4.05332 3.61653 4.06762 3.59676 4.08632C3.577 4.10503 3.56141 4.12774 3.55109 4.15291C3.54074 4.17812 3.53585 4.20521 3.53676 4.23241C3.53768 4.25962 3.54435 4.28632 3.55635 4.31077C3.56835 4.33518 3.58538 4.3568 3.60638 4.37415C3.62735 4.3915 3.65176 4.40421 3.678 4.41144C3.70426 4.41865 3.73174 4.42021 3.75865 4.416C3.78553 4.4118 3.81124 4.40194 3.83403 4.38706C4.525 4.03841 5 3.32456 5 2.49994C5 1.67533 4.52479 0.961484 3.83403 0.612828C3.80112 0.59446 3.76356 0.586169 3.72597 0.588984C3.71994 0.588698 3.71391 0.588698 3.70788 0.588984ZM3.25115 1.33398C3.20974 1.33702 3.17044 1.35338 3.13909 1.38062C3.10776 1.40785 3.08606 1.4445 3.07729 1.48507C3.0685 1.52565 3.07309 1.56799 3.09035 1.60575C3.10762 1.6435 3.13665 1.67466 3.17309 1.69456C3.46979 1.87898 3.65385 2.1711 3.65385 2.49994C3.65385 2.8311 3.46691 3.12706 3.16712 3.3113C3.14356 3.32359 3.12282 3.34062 3.10618 3.36132C3.08953 3.38203 3.07735 3.40594 3.07041 3.43159C3.0635 3.45724 3.06194 3.48406 3.06588 3.51032C3.06982 3.53659 3.07918 3.56177 3.09332 3.58424C3.10747 3.60674 3.12612 3.62603 3.14812 3.64094C3.17009 3.65585 3.19494 3.66606 3.22106 3.67088C3.24718 3.67571 3.27403 3.67509 3.29988 3.66903C3.32576 3.66297 3.35009 3.65165 3.37135 3.63571C3.76941 3.39147 4.03847 2.97609 4.03847 2.49994C4.03847 2.02667 3.77174 1.60898 3.37729 1.36417C3.34509 1.34359 3.30747 1.33308 3.26924 1.33398C3.26321 1.3337 3.25718 1.3337 3.25115 1.33398Z" fill="white"/>
</g>
</g>
<defs>
<clipPath id="clip0_37_10">
<rect width="5" height="5" fill="white"/>
</clipPath>
</defs>
</svg>
