<svg width="10" height="10" viewBox="0 0 10 10" fill="none" xmlns="http://www.w3.org/2000/svg">
<g clip-path="url(#clip0_37_10)">
<mask id="mask0_37_10" style="mask-type:luminance" maskUnits="userSpaceOnUse" x="0" y="0" width="10" height="10">
<path d="M10 0H0V10H10V0Z" fill="white"/>
</mask>
<g mask="url(#mask0_37_10)">
<path d="M4.62731 0.408856C4.50385 0.409241 4.36731 0.464625 4.24269 0.588854L2.04308 3.07693H0.384615C0.172692 3.07693 0 3.24962 0 3.46155V6.53848C0 6.75042 0.172692 6.92307 0.384615 6.92307H2.04346L4.23077 9.39924C4.61538 9.78383 5 9.58695 5 9.06271V0.876931C5 0.572702 4.83346 0.406933 4.62731 0.408087V0.408856ZM7.41577 1.17809C7.33394 1.19235 7.259 1.23272 7.202 1.29313C7.14506 1.35355 7.10918 1.43078 7.09977 1.51327C7.09029 1.59577 7.10782 1.67911 7.14965 1.75082C7.19153 1.82254 7.25547 1.87879 7.33194 1.91117C7.90418 2.19872 8.385 2.64007 8.72041 3.18567C9.05582 3.73128 9.23253 4.35955 9.23076 5.00001C9.23076 6.35542 8.46153 7.51924 7.33153 8.08883C7.28012 8.10677 7.23306 8.13536 7.19353 8.17277C7.154 8.21018 7.12282 8.25559 7.10218 8.30595C7.08147 8.35636 7.07171 8.41054 7.07353 8.46495C7.07535 8.51936 7.08871 8.57277 7.11271 8.62165C7.13671 8.67048 7.17076 8.71371 7.21276 8.74842C7.25471 8.78312 7.30353 8.80854 7.356 8.82301C7.40853 8.83742 7.46347 8.84054 7.51729 8.83212C7.57106 8.82371 7.62247 8.80401 7.66806 8.77424C9.05 8.07695 10 6.64924 10 5.00001C10 3.35078 9.04959 1.92309 7.66806 1.22578C7.60224 1.18904 7.52712 1.17246 7.45194 1.17809C7.43988 1.17752 7.42782 1.17752 7.41577 1.17809ZM6.50229 2.66809C6.41947 2.67417 6.34088 2.70689 6.27818 2.76135C6.21553 2.81582 6.17212 2.88912 6.15459 2.97027C6.137 3.05143 6.14618 3.1361 6.18071 3.21161C6.21524 3.28713 6.27329 3.34945 6.34618 3.38924C6.93959 3.75809 7.30771 4.34232 7.30771 5.00001C7.30771 5.66232 6.93382 6.25424 6.33424 6.62271C6.28712 6.6473 6.24565 6.68136 6.21235 6.72277C6.17906 6.76418 6.15471 6.81201 6.14082 6.8633C6.127 6.91459 6.12388 6.96824 6.13176 7.02077C6.13965 7.0733 6.15835 7.12365 6.18665 7.16859C6.21494 7.21359 6.25224 7.25218 6.29624 7.28201C6.34018 7.31183 6.38988 7.33224 6.44212 7.34189C6.49435 7.35154 6.54806 7.3503 6.59976 7.33818C6.65153 7.32607 6.70018 7.30342 6.74271 7.27154C7.53882 6.78307 8.07694 5.9523 8.07694 5.00001C8.07694 4.05347 7.54347 3.21809 6.75459 2.72847C6.69018 2.6873 6.61494 2.66628 6.53847 2.66809C6.52641 2.66752 6.51435 2.66752 6.50229 2.66809Z" fill="white"/>
</g>
</g>
<defs>
<clipPath id="clip0_37_10">
<rect width="10" height="10" fill="white"/>
</clipPath>
</defs>
</svg>
