<svg width="8" height="8" viewBox="0 0 8 8" fill="none" xmlns="http://www.w3.org/2000/svg">
<g clip-path="url(#clip0_37_10)">
<mask id="mask0_37_10" style="mask-type:luminance" maskUnits="userSpaceOnUse" x="0" y="0" width="8" height="8">
<path d="M8 0H0V8H8V0Z" fill="white"/>
</mask>
<g mask="url(#mask0_37_10)">
<path d="M3.70184 0.327036C3.60308 0.327344 3.49384 0.371651 3.39416 0.471034L1.63446 2.4615H0.307692C0.138154 2.4615 0 2.59965 0 2.76919V5.23073C0 5.40029 0.138154 5.5384 0.307692 5.5384H1.63477L3.38462 7.51934C3.69231 7.82702 4 7.66951 4 7.25012V0.701496C4 0.458113 3.86677 0.325498 3.70184 0.326421V0.327036ZM5.93261 0.942423C5.86715 0.953834 5.8072 0.986126 5.7616 1.03446C5.71605 1.08279 5.68734 1.14457 5.67981 1.21057C5.67224 1.27657 5.68626 1.34324 5.71972 1.40061C5.75322 1.45798 5.80438 1.50298 5.86555 1.52888C6.32334 1.75893 6.708 2.112 6.97633 2.54849C7.24466 2.98497 7.38602 3.48759 7.38461 3.99996C7.38461 5.08429 6.76922 6.01535 5.86522 6.47102C5.82409 6.48537 5.78645 6.50824 5.75482 6.53817C5.7232 6.5681 5.69826 6.60443 5.68174 6.64471C5.66518 6.68504 5.65736 6.72838 5.65882 6.77191C5.66028 6.81544 5.67096 6.85817 5.69016 6.89727C5.70936 6.93633 5.73661 6.97092 5.77021 6.99869C5.80376 7.02645 5.84282 7.04678 5.8848 7.05836C5.92682 7.06989 5.97078 7.07238 6.01384 7.06565C6.05685 7.05892 6.09798 7.04316 6.13445 7.01934C7.24 6.46151 8 5.31934 8 3.99996C8 2.68057 7.23967 1.53842 6.13445 0.980573C6.08179 0.951185 6.02169 0.937919 5.96155 0.942423C5.95191 0.941966 5.94226 0.941966 5.93261 0.942423ZM5.20184 2.13442C5.13558 2.13928 5.07271 2.16546 5.02254 2.20903C4.97242 2.25261 4.93769 2.31125 4.92367 2.37617C4.9096 2.4411 4.91694 2.50883 4.94456 2.56924C4.97219 2.62966 5.01864 2.67951 5.07694 2.71134C5.55167 3.00642 5.84616 3.47381 5.84616 3.99996C5.84616 4.52981 5.54706 5.00334 5.06739 5.29812C5.02969 5.31779 4.99652 5.34504 4.96988 5.37817C4.94325 5.4113 4.92376 5.44956 4.91266 5.49059C4.9016 5.53163 4.89911 5.57454 4.90541 5.61657C4.91172 5.65859 4.92668 5.69887 4.94932 5.73483C4.97195 5.77083 5.00179 5.8017 5.03699 5.82556C5.07214 5.84942 5.11191 5.86574 5.15369 5.87346C5.19548 5.88118 5.23845 5.88019 5.27981 5.8705C5.32122 5.8608 5.36014 5.84269 5.39416 5.81718C6.03106 5.4264 6.46155 4.76179 6.46155 3.99996C6.46155 3.24273 6.03478 2.57442 5.40367 2.18273C5.35214 2.14979 5.29195 2.13297 5.23078 2.13442C5.22113 2.13397 5.21148 2.13397 5.20184 2.13442Z" fill="white"/>
</g>
</g>
<defs>
<clipPath id="clip0_37_10">
<rect width="8" height="8" fill="white"/>
</clipPath>
</defs>
</svg>
